<?xml version="1.0" standalone="no"?><!DOCTYPE svg PUBLIC "-//W3C//DTD SVG 1.1//EN" "http://www.w3.org/Graphics/SVG/1.1/DTD/svg11.dtd"><svg t="1696059809926" class="icon" viewBox="0 0 1028 1024" version="1.1" xmlns="http://www.w3.org/2000/svg" p-id="3552" xmlns:xlink="http://www.w3.org/1999/xlink" width="200.78125" height="200"><path d="M898.133333 40.533333h-768C57.6 40.533333 0 98.133333 0 170.666667v682.666666c0 72.533333 57.6 130.133333 130.133333 130.133334h768c72.533333 0 130.133333-57.6 130.133334-130.133334V170.666667c0-72.533333-57.6-130.133333-130.133334-130.133334zM981.333333 853.333333c0 46.933333-38.4 83.2-83.2 83.2h-768C85.333333 936.533333 46.933333 900.266667 46.933333 853.333333V170.666667c0-46.933333 38.4-83.2 83.2-83.2h768c46.933333 0 83.2 38.4 83.2 83.2v682.666666z" p-id="3553" fill="#ffffff"></path><path d="M876.8 448H640c-10.666667 0-19.2 8.533333-19.2 19.2v2.133333c0 10.666667 8.533333 19.2 19.2 19.2h236.8c10.666667 0 19.2-8.533333 19.2-19.2v-2.133333c0-10.666667-8.533333-19.2-19.2-19.2zM876.8 576h-187.733333c-10.666667 0-19.2 8.533333-19.2 19.2v4.266667c0 10.666667 8.533333 19.2 19.2 19.2h187.733333c10.666667 0 19.2-8.533333 19.2-19.2v-4.266667c0-10.666667-8.533333-19.2-19.2-19.2zM878.933333 704h-164.266666c-10.666667 0-19.2 8.533333-19.2 19.2v6.4c0 10.666667 8.533333 19.2 19.2 19.2H878.933333c10.666667 0 19.2-8.533333 19.2-19.2v-6.4c-2.133333-10.666667-8.533333-19.2-19.2-19.2zM467.2 488.533333c34.133333-25.6 57.6-66.133333 57.6-110.933333 0-76.8-61.866667-138.666667-138.666667-138.666667s-138.666667 61.866667-138.666666 138.666667c0 44.8 23.466667 85.333333 57.6 110.933333C204.8 522.666667 132.266667 618.666667 132.266667 729.6v21.333333h509.866666v-21.333333c-2.133333-110.933333-74.666667-206.933333-174.933333-241.066667z m-177.066667-110.933333c0-53.333333 42.666667-96 96-96s96 42.666667 96 96-42.666667 96-96 96-96-42.666667-96-96zM174.933333 708.266667c10.666667-106.666667 100.266667-189.866667 211.2-189.866667s200.533333 83.2 211.2 189.866667H174.933333z" p-id="3554" fill="#ffffff"></path></svg>