<?xml version="1.0" encoding="UTF-8" standalone="no"?>
<!-- Created with Inkscape (http://www.inkscape.org/) -->

<svg
   version="1.1"
   id="svg1"
   width="196.01518"
   height="286.84695"
   viewBox="0 0 196.01518 286.84695"
   sodipodi:docname="logo.svg"
   inkscape:version="1.3 (0e150ed6c4, 2023-07-21)"
   xmlns:inkscape="http://www.inkscape.org/namespaces/inkscape"
   xmlns:sodipodi="http://sodipodi.sourceforge.net/DTD/sodipodi-0.dtd"
   xmlns="http://www.w3.org/2000/svg"
   xmlns:svg="http://www.w3.org/2000/svg">
  <defs
     id="defs1" />
  <sodipodi:namedview
     id="namedview1"
     pagecolor="#ffffff"
     bordercolor="#000000"
     borderopacity="0.25"
     inkscape:showpageshadow="2"
     inkscape:pageopacity="0.0"
     inkscape:pagecheckerboard="0"
     inkscape:deskcolor="#d1d1d1"
     inkscape:zoom="6.7579399"
     inkscape:cx="221.14727"
     inkscape:cy="196.80554"
     inkscape:window-width="1280"
     inkscape:window-height="730"
     inkscape:window-x="-6"
     inkscape:window-y="-6"
     inkscape:window-maximized="1"
     inkscape:current-layer="g1" />
  <g
     inkscape:groupmode="layer"
     inkscape:label="Image"
     id="g1"
     transform="translate(-61.880604,-11.708939)">
    <path
       style="fill:#ffffff;fill-opacity:1"
       d="m 142.94808,296.68766 c -11.39242,-2.23685 -27.00381,-8.51842 -35.50036,-14.28434 -5.72429,-3.88461 -18.987035,-15.73338 -18.404885,-16.31552 0.29365,-0.29365 6.59264,5.08614 7.57107,5.97161 0.97844,0.88547 -6.3765,-4.2803 -5.76243,-4.66497 1.80089,-1.12814 7.92433,2.83586 4.49572,2.92904 -6.56662,0.17846 -21.52574,-21.49889 -27.29472,-39.55294 -7.27395,-22.76384 -6.00831,-49.4425 3.3126,-69.82694 3.41154,-7.4609 12.03792,-20.95623 13.29093,-20.95623 0.54339,0 2.41597,1.19828 2.02353,1.83326 -0.43207,0.6991 -2.70317,0.98811 -2.03052,0.57239 0.61096,-0.37759 -0.0373,-0.74924 -0.32383,-1.49592 -0.7326,-1.90913 9.89937,-7.73556 15.65534,-8.55472 4.886465,-0.69542 15.352185,1.69841 15.352185,3.31212 0,0.51716 -2.1876,-0.61812 -1.70631,-0.91557 1.60315,-0.99081 10.05027,5.8845 12.8109,10.59515 4.75911,8.12081 0.76662,32.16415 -4.26237,29.05606 -0.53022,-0.3277 3.40867,-1.15922 2.19476,0.0905 -1.7565,1.80829 -5.46972,-2.69456 -4.28761,-1.73783 1.75533,1.42067 4.24239,-0.29277 3.60782,0.0994 -0.56607,0.34985 -0.67839,0.0715 -0.3686,1.04755 0.30979,0.97606 0.3018,-0.42355 -0.49234,0.23553 -1.20227,0.99779 -5.19637,-1.42461 -4.60099,-3.29942 0.50652,-1.59509 9.92234,5.22327 5.13639,2.65287 -1.22911,-0.66013 0.18643,0.88991 -0.20109,-0.65803 -0.26094,-1.04233 1.03757,-2.15752 -0.63639,1.31811 -0.75296,1.56335 1.0676,-2.526 -1.24629,-0.73508 -0.38303,0.29647 2.38842,-1.94625 2.38842,-0.78133 0,1.34635 -2.63068,0.7024 -2.15273,-0.0158 2.10847,-3.16846 1.86202,-8.4e-4 2.3041,0.71446 1.03109,1.66834 0.53088,0.98593 0.53088,-0.8474 0,-1.59113 0.89257,-1.5055 1.51264,-0.88575 0.18524,0.18524 -2.7496,5.93819 -4.70463,9.87678 -4.85743,9.78576 -5.69451,21.39483 -2.33922,32.44141 1.2303,4.05047 2.20876,7.46008 2.17437,7.57691 -0.13746,0.46702 4.61114,5.95288 8.97997,10.37419 15.39847,15.58341 41.23141,16.97995 58.26679,3.14994 2.03199,-1.64965 5.08728,-4.12248 5.82905,-3.3807 0.58098,0.58098 -1.91609,1.46021 -1.33859,1.44349 0.5775,-0.0167 1.81891,1.17588 0.84484,0.6088 -0.97407,-0.56708 -1.50547,-1.46074 -1.1809,-1.98591 0.32457,-0.52516 1.07856,-0.65298 1.67554,-0.28403 0.65104,0.40237 -1.29035,3.85864 -1.72191,3.16036 -0.85087,-1.37673 6.5276,-12.19036 8.61442,-12.49664 1.82549,-0.26792 0.2688,2.70352 -1.53277,5.27558 -1.29653,1.85106 -0.49453,-5.91124 1.57133,-5.91124 2.05907,0 2.02681,4.80707 0.93856,0.4613 -0.0513,-0.20484 -0.76827,0.18776 -1.59327,0.87245 -1.94881,1.61736 -1.8949,1.19302 0.4703,-3.70238 5.71392,-11.82646 5.21037,-27.25113 -1.29923,-39.79762 -1.14145,-2.2 -1.98439,-4.3375 -1.87321,-4.75 0.11118,-0.4125 2.94876,5.42944 -1.33959,-0.20405 -0.6646,-0.87307 -10.87006,-11.82725 -10.16009,-12.53722 0.29915,-0.29915 8.32264,7.66217 7.52112,7.74467 -1.26752,0.13046 -12.8539,-8.19389 -24.33563,-16.7534 -1.84443,-1.375 -6.53715,-4.70975 -10.42828,-7.41055 -6.72619,-4.66859 -6.99276,-5.00118 -5.4101,-6.75 0.91558,-1.0117 1.89345,3.5499 1.42808,3.5499 -0.46536,0 -0.9036,-2.75545 0.16314,-3.53548 1.09681,-0.80201 0.0151,2.45485 -0.48559,1.98449 -0.48694,-0.45747 1.60752,-1.6138 1.36084,-0.92287 -0.24668,0.69092 -0.39514,-0.51938 -1.03567,-0.88599 -0.64052,-0.3666 0.0997,8.79064 -0.0131,-2.38938 -0.006,-0.60194 1.62203,4.01798 0.66813,4.76121 -1.60315,1.24903 -2.99454,-0.87885 -1.14595,-1.47449 1.89221,-0.60969 3.12741,-0.89997 1.51921,0.80876 -1.72896,1.83705 -8.82206,-1.76536 -7.57705,-3.77981 0.27791,-0.44968 6.29806,2.70631 5.65414,2.30834 -0.73123,-0.45193 1.64094,2.33532 1.05043,2.6123 -1.6932,0.7942 -8.23816,-4.58059 -10.15316,-6.26544 -1.45621,-1.2812 -48.330975,-35.699722 -62.847355,-45.920662 -3.46642,-2.4407 -10.14253,-8.25044 -9.8519,-8.54107 0.29063,-0.29063 9.34445,7.19236 10.28832,7.95824 1.13552,0.92138 -13.78761,-10.76091 -14.28452,-11.588 -0.91669,-1.52585 14.05291,6.5662 16.64914,7.95566 1.07925,0.5776 -0.87092,1.36505 -1.19317,1.88645 -0.7968,1.28926 3.64558,0.99166 5.27049,0.40801 0.70558,-0.25344 5.88207,9.45497 5.39026,9.23038 -3.88672,-1.77492 -3.15754,-6.53034 -0.47772,-5.86206 1.35916,0.33894 3.13045,5.92208 2.14388,6.62856 -1.33603,0.95673 -2.48184,-5.64108 1.0143,-4.91257 2.1168,0.4411 3.949255,5.32201 1.76689,4.62936 -1.5049,-0.47764 -5.01584,1.24953 -4.25572,0.33366 1.31263,-1.58163 -1.85313,-6.78293 -3.79462,-5.24778 -0.96332,0.7617 -8.49549,-5.96121 -10.47971,-8.02981 -2.1663,-2.25842 7.46274,6.31915 9.02664,6.86643 1.92524,0.67374 1.92524,0.659 0,-1.53232 -1.92847,-2.195 -2.65419,-4.94438 -0.67007,-4.2777 1.96935,0.66172 1.80267,4.27986 -0.10868,2.80043 -1.06762,-0.82635 -4.70786,1.24156 -5.29024,1.24998 -0.58238,0.008 -2.45068,-5.8606 -1.62568,-5.32744 1.33334,0.86166 6.58414,3.65063 5.2508,3.65063 -0.825,0 -2.15075,-0.41171 -2.94611,-0.91491 -0.88568,-0.56034 -2.15355,-0.53631 -3.27151,0.062 -1.82597,0.97724 -12.17887,-6.70205 -12.17887,-8.7438 0,-1.27642 2.56029,1.46559 4.49195,3.21372 1.61161,1.45849 -9.1e-4,1.15904 -0.25396,-0.5293 -0.20142,-1.34385 0.662,-1.52149 -1.50553,-1.42438 -3.38719,0.15177 -8.99096,-8.01999 -8.02714,-11.70565 0.27756,-1.0614 0.0966,-1.67763 -0.40209,-1.36942 -1.23859,0.7655 -1.13576,-7.19277 0.15291,-11.83323 0.57667,-2.07658 1.46901,-3.51571 1.98297,-3.19806 0.51396,0.31764 0.68531,-0.0718 0.38077,-0.8654 -0.30913,-0.80558 0.89193,-3.089414 2.71915,-5.170505 9.17105,-10.445245 22.87577,-12.946357 34.043845,-6.213001 16.25562,9.800696 24.62534,17.529316 21.47908,19.833826 -0.459,0.33619 -7.44916,-8.58887 -6.32145,-8.29397 2.0856,0.5454 10.06,8.33032 8.18494,6.98708 -0.53407,-0.3826 -11.08471,-9.06807 -10.74272,-9.41006 0.84146,-0.841454 46.34405,32.58586 45.72487,33.58771 -0.26927,0.43569 0.28222,0.73047 1.22553,0.65507 1.09682,-0.0877 1.71175,0.58391 1.70578,1.86291 -0.009,1.98997 -6.53693,-3.56836 -4.811,-3.53916 0.49774,0.008 2.65204,2.75879 1.60434,1.57844 -2.47463,-2.78785 4.1423,1.14741 9.97248,5.37378 4.56055,3.30601 44.30148,32.879372 40.59715,31.910672 -1.26265,-0.33019 -35.74368,-25.078872 -35.36332,-24.087702 0.46546,1.21297 -3.85247,-0.89233 -1.83936,-2.21137 2.45381,-1.6078 15.37153,6.08621 14.61221,8.703282 -0.1568,0.54042 0.2358,1.61021 0.87244,2.37732 0.87901,1.05913 0.87325,1.39474 -0.0239,1.39474 -0.6498,0 -0.90335,0.45 -0.56343,1 0.33992,0.55 -5.07101,-5.47391 -4.52101,-5.47391 0.55,0 6.86093,6.02391 6.52101,5.47391 -0.33992,-0.55 -5.72157,-6.930122 -5.00158,-6.947622 0.81153,-0.0197 6.26925,5.329962 5.07458,4.426152 -4.26001,-3.2229 -0.42616,-2.36971 4.16132,0.92606 3.49703,2.51237 4.90631,4.19476 4.84795,5.7875 -0.0547,1.49277 -13.47583,-10.46632 -12.14627,-10.21965 1.99925,0.37092 16.06325,13.20668 14.066,11.69916 -1.09914,-0.82944 -1.69701,-1.8095 -1.32861,-2.1779 0.3684,-0.3684 2.05828,0.35672 3.75529,1.61137 2.07101,1.53117 2.75443,2.61224 2.07861,3.28806 -0.55378,0.55378 -1.00687,1.45287 -1.00687,1.998 0,0.54512 -40.60206,-29.611712 -39.8866,-30.590162 2.67764,-3.6619 67.75011,45.753562 76.30061,58.635442 47.82043,72.04451 -14.42474,167.95178 -98.31312,151.48071 z M 254.20397,156.47964 c -0.9622,-4.73581 -3.80609,-14.98744 -7.82546,-28.2091 -2.22128,-7.30689 -8.35731,-28.688582 -11.04856,-38.500002 -2.03929,-7.43456 -9.54658,-33.37283 -11.07067,-38.25 -1.35136,-4.324459 11.33224,-0.29891 17.33791,5.50274 3.66056,3.5362 4.47105,6.09104 1,3.15224 -2.25,-1.90498 3.78242,2.13079 -0.36635,0.32144 -1.47025,-0.6412 0.32878,-0.56927 0.8168,-0.87088 2.68262,-1.65795 6.93688,13.74376 8.23475,37.64446 0.32853,6.050002 1.02551,16.175002 1.54885,22.500002 3.17215,38.33849 3.50337,47.19585 1.37273,36.7091 z m -9.76299,-14.41362 c -0.32386,-1.02038 -2.17172,-4.31212 -4.10635,-7.31498 -1.93463,-3.00286 -10.05326,-16.43635 -9.78978,-17.12296 0.26347,-0.68661 8.95343,12.46604 8.37254,12.59694 -1.43233,0.32284 -15.10803,-20.50743 -14.28703,-21.83583 0.35915,-0.58112 16.56158,23.77166 16.0327,24.09852 -2.79926,1.73004 -26.93955,-40.600912 -24.71986,-43.603202 2.34917,-3.17742 6.9853,3.94758 4.47717,6.45571 -1.42625,1.42625 -3.8619,-0.0909 -4.79752,-2.55176 -0.56635,-1.4896 1.36604,0.3388 1.03193,0.67291 -0.33412,0.33411 -0.30659,0.42484 0.63686,1.86472 0.94345,1.43989 4.8567,8.182932 4.60342,8.436212 -0.25329,0.25328 -6.63491,-9.530982 -10.08868,-15.194492 -3.45378,-5.6635 -9.14204,-14.84812 -12.64058,-20.41027 -3.78483,-6.01732 -10.83252,-18.06203 -10.48185,-18.97587 0.32415,-0.84472 4.82407,5.49728 4.24287,5.13808 -0.65219,-0.40308 1.76543,0.24604 2.09651,1.35819 0.49165,1.65152 -2.1887,1.43616 -3.37825,-0.28154 -4.50344,-6.50286 -5.75342,-8.888807 -5.1599,-9.84914 0.36907,-0.597163 0.93327,1.527778 0.42223,1.843621 -0.51104,0.315839 -3.91819,-5.510907 -6.73987,-10.069862 -5.13033,-8.289008 -5.13033,-8.289008 -0.97534,-10.662686 7.79636,-4.453929 35.49386,1.630946 29.67658,6.296881 -1.80704,1.449392 -6.38647,-2.140193 -4.14646,-3.23167 3.23894,-1.578225 8.30147,2.924343 6.17242,5.489696 -0.71084,0.856507 -0.86527,1.557286 -0.34318,1.557286 0.52208,0 0.75111,1.35 0.50894,3 -0.2643,1.800811 -1.61741,-6.106438 -0.94922,-6.106438 0.61243,0 0.85182,1.669212 0.85182,1.086753 0,-0.58246 -0.8584,-3.188351 -0.3084,-2.848432 1.50757,0.931725 4.39403,8.600866 2.59049,6.025955 -0.8811,-1.257945 -1.99508,-4.563215 -1.70793,-4.850368 1.64739,-1.647388 35.4393,108.823816 33.8062,110.517896 -0.17251,0.17895 -0.57863,-0.5095 -0.90248,-1.52988 z m -24.59379,-24.43859 c -3.575,-2.67098 -6.38038,-5.32782 -6.23417,-5.90408 0.1462,-0.57627 6.51245,4.76525 5.73087,4.92886 -0.78159,0.1636 -10.03732,-6.63588 -12.15194,-8.16881 -2.11461,-1.53292 -11.26976,-8.14216 -20.34476,-14.687192 -9.075,-6.54504 -19.0896,-13.7679 -22.25467,-16.0508 -3.16507,-2.2829 -8.42241,-6.75474 -8.15089,-7.19406 0.27151,-0.43933 2.601,0.83231 1.64455,0.0825 -1.57366,-1.2337 42.17224,23.56794 -0.36654,0.3867 -3.098,-1.68824 7.86831,7.37211 3.06598,3.76904 -7.15926,-5.37141 -22.96877,-16.36766 -30.39334,-21.60913 C 116.15957,43.13268 114.97183,40.806935 118.49779,29.88944 c 5.73488,-17.757016 28.47022,-24.0845476 42.56957,-11.847646 4.41689,3.833446 17.34368,24.848648 16.60129,26.783302 -0.28524,0.743305 -5.31299,-8.550728 -4.82421,-8.852808 0.48877,-0.30208 8.68547,12.69589 14.65289,22.34196 5.96743,9.64606 17.29566,27.91155 25.17385,40.58998 16.21434,26.093852 15.88252,25.228102 7.17601,18.723212 z"
       id="path2"
       sodipodi:nodetypes="csssssssssssssssssssssssssssssssssssssssssssssssssssssssssssssssssssssssssssssssssssssssscssssssssssssssssssssscccssssssssssssssscssssssccsssssssssssssscssssssssssssssssssssssssssssssssssssssssssssssssss" />
  </g>
</svg>
